# xmcd
#
# Track frame offsets: 
#        150
#        16746
#        34860
#        45985
#        59685
#        83438
#        97937
#        121095
#        143653
#        159986
#        174437
#        196791
#        211345
#        222983
#        236236
#        256076
#        280627
#        292446
#        306533
#
# Disc length: 4274 seconds
#
# Revision: 0
# Processed by: cddbd v1.5.2PL0 Copyright (c) Steve Scherf et al.
# Submitted via: ExactAudioCopy v0.99pb5
#
DISCID=0610b013
DTITLE=Graham Bond Organization  - Singles and Rarities Vol 3  FLAC
DYEAR=1900
DGENRE=
TTITLE0=St. James Infirmary
TTITLE1=Wade In The Water
TTITLE2=Waltz For A Pig
TTITLE3=Walkin' In The Park
TTITLE4=Green Onions
TTITLE5=Spingtime In The City
TTITLE6=Can't Stand It
TTITLE7=Only Sixteen
TTITLE8=Last Night
TTITLE9=Long Legged Baby
TTITLE10=It's Not Goodbye
TTITLE11=Neighbour, Neighbour
TTITLE12=You Gotta Have Love
TTITLE13=I Love You
TTITLE14=Twelve Gates To The City
TTITLE15=Water Water
TTITLE16=Museum
TTITLE17=A Quick One For Sanity
TTITLE18=A Quick One For Sanity
EXTD=
EXTT0=
EXTT1=
EXTT2=
EXTT3=
EXTT4=
EXTT5=
EXTT6=
EXTT7=
EXTT8=
EXTT9=
EXTT10=
EXTT11=
EXTT12=
EXTT13=
EXTT14=
EXTT15=
EXTT16=
EXTT17=
EXTT18=
PLAYORDER=
